<svg width="274" height="181" viewBox="0 0 274 181" fill="none" xmlns="http://www.w3.org/2000/svg">
<path d="M16.7597 148.715C16.7597 148.715 7.04782 158.535 2.88559 158.535C-2.66406 158.535 1.49882 152.923 1.49882 152.923L11.2106 143.103C11.2106 143.103 167.545 -0.894607 169.375 0.00419012L16.7597 148.715Z" fill="url(#paint0_linear_50_694)"/>
<path d="M76.2234 170.443C76.2234 170.443 66.8223 180.18 62.7933 180.18C57.4212 180.18 61.4509 174.616 61.4509 174.616L70.8518 164.88C70.8518 164.88 222.184 22.113 223.955 23.0042L76.2234 170.443Z" fill="url(#paint1_linear_50_694)"/>
<path d="M155.061 150.14C155.061 150.14 147.493 158.536 144.249 158.536C139.924 158.536 143.168 153.738 143.168 153.738L150.737 145.342C150.737 145.342 272.574 22.2352 274 23.0036L155.061 150.14Z" fill="url(#paint2_linear_50_694)"/>
<defs>
<linearGradient id="paint0_linear_50_694" x1="-0.999998" y1="160" x2="189.438" y2="-15.9016" gradientUnits="userSpaceOnUse">
<stop stop-color="#DDC59F"/>
<stop offset="0.0538573" stop-color="#CE9B49"/>
<stop offset="0.951524" stop-color="#140D01"/>
</linearGradient>
<linearGradient id="paint1_linear_50_694" x1="68.1653" y1="180.18" x2="263.239" y2="15.8722" gradientUnits="userSpaceOnUse">
<stop stop-color="#C0590B"/>
<stop offset="0.848958" stop-color="#150A02"/>
</linearGradient>
<linearGradient id="paint2_linear_50_694" x1="148.574" y1="158.536" x2="314.458" y2="28.0821" gradientUnits="userSpaceOnUse">
<stop stop-color="#E47B40"/>
<stop offset="0.0515636" stop-color="#F14D08"/>
<stop offset="1" stop-color="#140701"/>
</linearGradient>
</defs>
</svg>
