<svg width="50" height="70" viewBox="0 0 50 70" fill="none" xmlns="http://www.w3.org/2000/svg">
<path fill-rule="evenodd" clip-rule="evenodd" d="M46 42C47.213 42 48.3396 41.3719 48.9773 40.3401C49.615 39.3082 49.673 38.0197 49.1305 36.9348L42.9131 24.5L49.1305 12.0652C49.673 10.9803 49.615 9.6918 48.9773 8.65994C48.3396 7.62808 47.213 7 46 7H7.5V3.5C7.5 1.567 5.933 0 4 0C2.06701 -1.92037e-06 0.500002 1.567 0.500002 3.5L0.500001 10.5L0.5 38.5L0.500003 66.5C0.500003 68.433 2.06701 70 4 70C5.933 70 7.5 68.433 7.5 66.5L7.5 42H46Z" fill="white"/>
</svg>
