<svg width="51" height="63" viewBox="0 0 51 63" fill="none" xmlns="http://www.w3.org/2000/svg">
<path d="M50.6153 7.76561L44.5825 6.16264L46.0159 3.80031C46.3014 3.32953 46.1518 2.71656 45.681 2.43009L45.1123 2.08464C44.6415 1.79922 44.0285 1.94878 43.7421 2.41956L42.2971 4.80085L38.0379 0.133059C37.8547 -0.0681021 37.5282 -0.0365054 37.3871 0.196252L31.0426 10.6514C30.9489 10.8062 30.9678 11.0042 31.09 11.138L35.5113 15.9827L23.7039 35.4395C23.4185 35.9103 23.568 36.5233 24.0388 36.8097L24.6086 37.1552C25.0794 37.4406 25.6923 37.291 25.9788 36.8203L37.7957 17.3455L44.0601 19.0096C44.235 19.0559 44.4203 18.9822 44.5141 18.8263L50.8586 8.3712C51.0007 8.13844 50.8786 7.83512 50.6153 7.76561Z" fill="black"/>
<path d="M37.049 20.9485L34.2486 25.5636C41.0712 31.1793 42.9132 41.0984 38.1949 48.8741C33.0184 57.4051 21.9061 60.1244 13.3741 54.9479C4.84214 49.7715 2.12381 38.6591 7.30029 30.1272C12.0197 22.3493 21.6733 19.4035 29.8062 22.8664L32.6056 18.2523C22.1325 13.4065 9.46463 17.1001 3.33711 27.1993C-3.24645 38.0493 0.212272 52.1812 11.0613 58.7658C21.9114 65.3494 36.0432 61.8906 42.6278 51.0416C48.7564 40.9425 46.1834 28.0007 37.049 20.9485Z" fill="black"/>
<path d="M32.7446 28.0428L27.1437 37.2731C26.3991 38.5001 24.8014 38.8908 23.5744 38.1462C22.3474 37.4016 21.9567 35.8039 22.7013 34.5769L28.3023 25.3466C21.7545 22.8095 14.1325 25.2497 10.3631 31.4615C6.13342 38.4316 8.35569 47.5112 15.3258 51.7409C22.2959 55.9705 31.3755 53.7483 35.6051 46.7782C39.3745 40.5664 38.0191 32.679 32.7446 28.0428Z" fill="black"/>
</svg>
