<svg width="29" height="30" viewBox="0 0 29 30" fill="none" xmlns="http://www.w3.org/2000/svg">
<path d="M28.799 15.331C28.799 14.2709 28.7036 13.2564 28.5262 12.281H14.8044V17.8696L22.7071 17.8713C22.3866 19.7308 21.355 21.316 19.7745 22.3727V25.9986H24.4786C27.2253 23.4735 28.799 19.741 28.799 15.331Z" fill="#4285F4"/>
<path d="M19.7762 22.3728C18.4668 23.25 16.7805 23.7632 14.8078 23.7632C10.9972 23.7632 7.7645 21.2127 6.60681 17.7748H1.75439V21.5142C4.15844 26.2527 9.09951 29.5042 14.8078 29.5042C18.7532 29.5042 22.0677 28.2155 24.4803 25.9969L19.7762 22.3728Z" fill="#34A853"/>
<path d="M6.14977 15.0009C6.14977 14.0356 6.31175 13.1024 6.60671 12.2252V8.48587H1.7543C0.760286 10.4453 0.20105 12.657 0.20105 15.0009C0.20105 17.3447 0.761991 19.5565 1.7543 21.5159L6.60671 17.7766C6.31175 16.8993 6.14977 15.9662 6.14977 15.0009Z" fill="#FABB05"/>
<path d="M14.8078 6.23686C16.9612 6.23686 18.8896 6.97354 20.4122 8.41304L24.5809 4.27575C22.049 1.9336 18.7481 0.495789 14.8078 0.495789C9.10122 0.495789 4.15844 3.74737 1.75439 8.48586L6.60681 12.2252C7.7645 8.78731 10.9972 6.23686 14.8078 6.23686Z" fill="#E94235"/>
</svg>
