<svg width="55" height="50" viewBox="0 0 55 50" fill="none" xmlns="http://www.w3.org/2000/svg">
<path d="M33.7426 27.5944V48.4697C33.7426 49.2714 33.0928 49.9212 32.2911 49.9212H22.4934C21.6916 49.9212 21.0418 49.2714 21.0418 48.4697V27.5944C21.0418 26.7926 21.6916 26.1428 22.4934 26.1428H32.2911C33.0928 26.1428 33.7426 26.7926 33.7426 27.5944Z" fill="black"/>
<path d="M53.8823 22.2262H50.3689C50.0461 22.2262 49.7852 22.488 49.7852 22.8099V49.3386C49.7852 49.6613 49.5234 49.9223 49.2015 49.9223H37.6689C37.3462 49.9223 37.0852 49.6605 37.0852 49.3386V22.8099C37.0852 22.4871 36.8234 22.2262 36.5015 22.2262H33.2705C32.7838 22.2262 32.5108 21.6665 32.8104 21.2828L43.2082 7.96911C43.4434 7.66781 43.8992 7.67038 44.1318 7.9734L54.3475 21.2871C54.6403 21.6708 54.3664 22.2262 53.8823 22.2262Z" fill="black"/>
<path d="M17.9362 19.1418C17.9362 16.6782 16.4898 14.4301 14.2288 13.4515C13.4965 13.1347 12.6708 12.9038 11.7506 12.7622L10.2149 17.1761L9.22946 15.0344L10.2407 13.3923H7.58735L8.71615 15.0344L7.7144 17.1761L6.06284 12.7622C4.80787 12.8395 3.70484 13.1931 2.75374 13.8189C1.02321 14.9571 0.00944109 16.9143 0.00944109 18.9856L0 32.9671C0 32.9671 0.37426 34.8805 2.843 34.3826V48.9152C2.843 49.3702 3.21126 49.7384 3.66621 49.7384H5.63022C6.02508 49.7384 6.36414 49.4586 6.43882 49.0714L8.75477 37.0762C8.79855 36.8505 9.12216 36.8539 9.16165 37.0797L11.2441 49.056C11.3128 49.45 11.6553 49.7384 12.0553 49.7384H14.1043C14.5592 49.7384 14.9275 49.3702 14.9275 48.9152V34.3826C17.1301 34.8144 17.9035 32.9654 17.9035 32.9654L17.9362 19.1418Z" fill="black"/>
<path d="M4.69547 8.37536C5.91525 11.1557 7.30499 12.5489 8.86555 12.5532C10.4261 12.5489 11.8167 11.1566 13.0356 8.37536C13.876 8.25776 14.2983 7.49636 14.2966 6.73325C14.2949 6.03967 14.0039 5.49716 13.4168 5.10573C13.5258 1.15712 11.3085 0 8.86555 0C6.17019 0 4.20532 1.15712 4.31434 5.10573C3.72806 5.4963 3.4362 6.03881 3.43448 6.73325C3.43277 7.49636 3.8551 8.25776 4.69547 8.37536Z" fill="black"/>
</svg>
