<svg width="51" height="42" viewBox="0 0 51 42" fill="none" xmlns="http://www.w3.org/2000/svg">
<path d="M16.87 18.3344V36.519H5.95135V18.3344C5.95135 18.0493 6.182 17.8186 6.46709 17.8186H16.3533C16.6394 17.8176 16.87 18.0493 16.87 18.3344Z" fill="black"/>
<path d="M20.6049 0H30.0981C30.4782 0.0574146 30.6683 0.247478 30.6683 0.570187V36.5187H20.0347V0.570187C20.0911 0.190063 20.2812 0 20.6049 0Z" fill="black"/>
<path d="M34.4022 13.5132H44.1805C44.5606 13.5706 44.7507 13.7607 44.7507 14.0834V36.5186H33.832V14.0834C33.8894 13.7032 34.0785 13.5132 34.4022 13.5132Z" fill="black"/>
<path d="M50.6862 41.093H0.313793C0.140559 41.093 0 40.9524 0 40.7792V38.4598C0 38.2866 0.140559 38.146 0.313793 38.146H50.6862C50.8594 38.146 51 38.2866 51 38.4598V40.7792C51 40.9534 50.8594 41.093 50.6862 41.093Z" fill="black"/>
</svg>
