<svg width="56" height="53" viewBox="0 0 56 53" fill="none" xmlns="http://www.w3.org/2000/svg">
<path d="M46.1213 13.6878C45.7243 13.106 44.7623 12.3625 43.2355 11.4561C42.7024 11.1414 42.3797 10.8724 42.2656 10.649C42.1465 10.4257 42.0869 10.0941 42.0869 9.65432C42.0869 9.31183 42.1395 9.0567 42.2457 8.88794C42.352 8.71917 42.5078 8.63479 42.7143 8.63479C42.9049 8.63479 43.0399 8.69732 43.1223 8.8224C43.2037 8.94749 43.2444 9.23836 43.2444 9.69402V10.6719H46.4311V10.1507C46.4311 9.10236 46.3288 8.35881 46.1253 7.92102C45.9218 7.48322 45.5059 7.12085 44.8785 6.83296C44.5538 6.68405 44.1935 6.57387 43.7974 6.50141V4.91602H41.7563V6.45376C41.2937 6.51431 40.8787 6.62847 40.5134 6.79624C39.9376 7.06031 39.5207 7.42564 39.2626 7.89222C39.0045 8.3598 38.8754 9.09838 38.8754 10.109C38.8754 10.8098 38.9667 11.3856 39.1484 11.8373C39.3301 12.288 39.5604 12.6414 39.8374 12.8966C40.1143 13.1517 40.6792 13.5627 41.5329 14.1276C42.3857 14.6875 42.9208 15.0865 43.1382 15.3258C43.3496 15.565 43.4559 16.0733 43.4559 16.8496C43.4559 17.2031 43.4003 17.4691 43.2891 17.6488C43.1779 17.8285 43.0081 17.9178 42.7798 17.9178C42.5515 17.9178 42.3926 17.8473 42.3033 17.7064C42.214 17.5654 42.1693 17.2477 42.1693 16.7524V15.1471H38.9826V16.0108C38.9826 16.9995 39.0829 17.7629 39.2844 18.301C39.4849 18.8391 39.9108 19.2818 40.5601 19.6293C40.9184 19.8209 41.3175 19.9599 41.7583 20.0462V21.4897H43.7994V20.0889C44.2779 20.0184 44.7156 19.8884 45.1127 19.6988C45.7431 19.397 46.168 19.0237 46.3884 18.578C46.6088 18.1322 46.719 17.4393 46.719 16.4992C46.717 15.2067 46.5184 14.2695 46.1213 13.6878Z" fill="black"/>
<path d="M39.07 2.19615C40.2394 1.80005 41.4932 1.58563 42.7967 1.58563C44.122 1.58563 45.3957 1.80799 46.583 2.217L47.1339 0.729887C45.7759 0.257347 44.3156 0.000244141 42.7967 0.000244141C41.2997 0.000244141 39.8612 0.249409 38.519 0.709044L39.07 2.19615Z" fill="black"/>
<path d="M54.4146 13.2033C54.4146 14.884 54.0572 16.4813 53.4149 17.9228L54.905 18.4747C55.6089 16.8596 56 15.0766 56 13.2033C56 12.0438 55.8501 10.9191 55.5692 9.8479L54.0741 10.4019C54.2955 11.2993 54.4146 12.2374 54.4146 13.2033Z" fill="black"/>
<path d="M32.4167 7.97979C33.4273 5.97547 35.0017 4.30371 36.9316 3.17299L36.3727 1.66504C34.0179 2.97942 32.1069 4.99265 30.9216 7.42584L32.4167 7.97979Z" fill="black"/>
<path d="M48.7173 3.20575C50.6899 4.37618 52.2862 6.11346 53.2819 8.19423L54.774 7.64127C53.6066 5.13164 51.6737 3.05086 49.2763 1.69678L48.7173 3.20575Z" fill="black"/>
<path d="M31.1778 13.2034C31.1778 12.1541 31.3177 11.1376 31.5788 10.1706L30.0858 9.61768C29.7651 10.7583 29.5934 11.9605 29.5934 13.2034C29.5934 15.1621 30.0202 17.0205 30.7856 18.6923L32.2777 18.1393C31.5729 16.6413 31.1778 14.9685 31.1778 13.2034Z" fill="black"/>
<path d="M46.5244 24.2109C45.354 24.607 44.1001 24.8225 42.7957 24.8225C41.5141 24.8225 40.2811 24.614 39.1275 24.2308L38.5766 25.7189C39.9019 26.1656 41.3205 26.4079 42.7957 26.4079C44.2937 26.4079 45.7332 26.1587 47.0754 25.699L46.5244 24.2109Z" fill="black"/>
<path d="M52.2514 19.9937L52.2802 19.9143C51.3262 21.2605 50.0913 22.3952 48.6627 23.233L49.2216 24.741C51.0463 23.7224 52.6048 22.283 53.7654 20.5546L52.2514 19.9937Z" fill="black"/>
<path d="M36.9843 23.2658C35.6282 22.4815 34.4458 21.4302 33.5087 20.1843L31.965 20.7561C33.1215 22.412 34.6493 23.7909 36.4263 24.7718L36.9843 23.2658Z" fill="black"/>
<path d="M27.2465 21.4897H28.0923C36.9951 22.0546 41.5865 22.8895 41.8704 23.9924V24.7995C41.4852 26.4673 41.0226 27.3012 40.4846 27.3012C36.7906 27.3012 32.8395 27.4809 28.6323 27.8402C28.6323 30.2258 30.9285 31.6881 35.5199 32.2271C39.0084 32.2271 44.0634 30.1235 50.6829 25.9163H51.49C52.7726 26.8654 53.4149 27.6874 53.4149 28.3793C48.7451 33.5355 43.8827 37.577 38.8297 40.5016C37.7 41.2461 36.0461 41.6174 33.865 41.6174C30.1453 41.6174 25.5529 41.4248 20.0889 41.0396C19.8586 41.8864 19.1269 43.0797 17.895 44.6184C18.9979 46.5175 19.5488 47.7108 19.5488 48.1972C19.4456 48.5824 16.5081 50.1479 10.7364 52.8918C9.63344 51.2757 6.05464 44.2978 -3.05176e-05 31.9571C5.1046 29.4693 7.95176 28.007 8.54342 27.5692H9.35052C9.91538 28.9035 10.1973 29.6351 10.1973 29.7632C11.4025 29.7632 14.2496 27.6477 18.7408 23.4136C21.2822 22.131 24.1164 21.4897 27.2465 21.4897Z" fill="black"/>
</svg>
